<svg width="42" height="42" viewBox="0 0 42 42" fill="none" xmlns="http://www.w3.org/2000/svg">
<path d="M31.514 1H10.486C5.24701 1 1 5.22814 1 10.4438V31.5562C1 36.7719 5.24701 41 10.486 41H31.514C36.753 41 41 36.7719 41 31.5562V10.4438C41 5.22814 36.753 1 31.514 1Z" fill="white" stroke="#EAEAEA" stroke-miterlimit="10"/>
<path d="M4.93527 11.7564C4.56979 9.5001 6.11017 7.37508 8.37653 7.01122L36.7293 2.45545C35.2657 1.53499 33.5317 1 31.6726 1H10.6445C5.40589 1 1.15857 5.22845 1.15857 10.4438V31.5562C1.15857 36.4442 4.88854 40.4633 9.66992 40.9502L4.93694 11.7564H4.93527Z" fill="#0068FF"/>
<path d="M25.768 13.5923C25.5877 13.4078 25.3574 13.3165 25.0787 13.3165C24.6682 13.3165 24.3678 13.5125 24.1792 13.9046C23.777 13.4344 23.2263 13.1985 22.5287 13.1985C21.6909 13.1985 20.9866 13.5208 20.4158 14.1638C19.8451 14.8068 19.5597 15.591 19.5597 16.5165C19.5597 17.4419 19.8451 18.2261 20.4158 18.8691C20.9866 19.5121 21.6909 19.8344 22.5287 19.8344C23.2263 19.8344 23.777 19.5985 24.1792 19.1283C24.3678 19.5204 24.6682 19.7165 25.0787 19.7165C25.3574 19.7165 25.5877 19.6251 25.768 19.4406C25.9482 19.2562 26.0383 19.0303 26.0383 18.7644V14.2701C26.0383 14.0043 25.9482 13.7783 25.768 13.5939V13.5923ZM23.767 17.6313C23.5333 17.932 23.2095 18.0816 22.8007 18.0816C22.3918 18.0816 22.068 17.932 21.8344 17.6313C21.6007 17.3306 21.4839 16.9601 21.4839 16.5165C21.4839 16.0728 21.6007 15.7023 21.8344 15.4016C22.068 15.1009 22.3901 14.9513 22.8007 14.9513C23.2112 14.9513 23.5333 15.1009 23.767 15.4016C24.0006 15.7023 24.1174 16.0728 24.1174 16.5165C24.1174 16.9601 24.0006 17.3306 23.767 17.6313Z" fill="#0068FF"/>
<path d="M28.2146 19.4407C28.0344 19.6251 27.8041 19.7165 27.5253 19.7165C27.2466 19.7165 27.0163 19.6251 26.8361 19.4407C26.6559 19.2563 26.5657 19.0303 26.5657 18.7645V10.7196C26.5657 10.4538 26.6559 10.2278 26.8361 10.0434C27.0163 9.85896 27.2466 9.76758 27.5253 9.76758C27.8041 9.76758 28.0344 9.85896 28.2146 10.0434C28.3948 10.2278 28.485 10.4538 28.485 10.7196V18.7645C28.485 19.032 28.3948 19.2563 28.2146 19.4407Z" fill="#0068FF"/>
<path d="M34.5781 14.1622C33.9622 13.5192 33.1779 13.1969 32.2249 13.1969C31.272 13.1969 30.4943 13.5142 29.8918 14.1506C29.2877 14.7853 28.9856 15.5745 28.9856 16.5149C28.9856 17.4553 29.2877 18.2445 29.8918 18.8791C30.496 19.5138 31.2737 19.8328 32.2249 19.8328C33.1762 19.8328 33.9622 19.5122 34.5781 18.8675C35.1688 18.2395 35.4642 17.4553 35.4642 16.5149C35.4642 15.5745 35.1688 14.7903 34.5781 14.1622ZM33.1929 17.6297C32.9592 17.9304 32.6371 18.08 32.2266 18.08C31.816 18.08 31.4939 17.9304 31.2603 17.6297C31.0267 17.329 30.9098 16.9585 30.9098 16.5149C30.9098 16.0713 31.0267 15.7007 31.2603 15.4C31.4939 15.0993 31.816 14.9498 32.2266 14.9498C32.6371 14.9498 32.9592 15.0993 33.1929 15.4C33.4265 15.7007 33.5434 16.0713 33.5434 16.5149C33.5434 16.9585 33.4265 17.329 33.1929 17.6297Z" fill="#0068FF"/>
<path d="M18.4966 13.4195C19.1759 12.5473 19.5146 11.9608 19.5146 11.6584C19.5146 10.9589 19.0724 10.61 18.1879 10.61H13.525C13.1578 10.61 12.8758 10.6964 12.6739 10.8692C12.4736 11.042 12.3718 11.2663 12.3718 11.5421C12.3718 11.8179 12.4719 12.0422 12.6739 12.215C12.8758 12.3878 13.1578 12.4742 13.525 12.4742H16.7276L12.6271 17.7477C12.3584 18.0933 12.2249 18.399 12.2249 18.6665C12.2249 19.4341 12.7339 19.8162 13.752 19.8162H18.5634C19.3327 19.8162 19.7166 19.4956 19.7166 18.8526C19.7166 18.2096 19.3327 17.8889 18.5634 17.8889H15.0253L18.4966 13.4212V13.4195Z" fill="#0068FF"/>
<path d="M16.0451 24.7824H14.8468V27.2597H16.0451C16.4055 27.2597 16.6959 27.1434 16.9196 26.9091C17.1432 26.6748 17.2533 26.3791 17.2533 26.0202C17.2533 25.6613 17.1415 25.3656 16.9196 25.1313C16.6959 24.8971 16.4055 24.7808 16.0451 24.7808V24.7824Z" fill="#03CA77"/>
<path d="M22.0197 27.1118C21.6391 27.1118 21.3421 27.2514 21.1251 27.5288C20.9082 27.8063 20.7997 28.1502 20.7997 28.5606C20.7997 28.971 20.9082 29.3133 21.1251 29.5924C21.3421 29.8699 21.6391 30.0094 22.0197 30.0094C22.4002 30.0094 22.6972 29.8699 22.9142 29.5924C23.1311 29.3149 23.2396 28.971 23.2396 28.5606C23.2396 28.1502 23.1311 27.808 22.9142 27.5288C22.6972 27.2514 22.3985 27.1118 22.0197 27.1118Z" fill="#03CA77"/>
<path d="M30.4793 21.2401H13.1161C12.537 21.2401 12.0664 21.707 12.0664 22.2835V32.4119C12.0664 32.9884 12.5354 33.4553 13.1161 33.4553H26.8228C26.6776 33.319 26.6058 33.1595 26.6058 32.9768C26.6058 32.8272 26.6392 32.6711 26.7076 32.5066L27.3535 31.076L25.5661 26.6333C25.5143 26.507 25.4876 26.3691 25.4876 26.2196C25.4876 26.0252 25.5694 25.8607 25.7346 25.7278C25.8999 25.5932 26.0718 25.5267 26.252 25.5267C26.6492 25.5267 26.9195 25.7161 27.0614 26.0983L28.1746 29.1305L29.3661 26.0983C29.5163 25.7178 29.785 25.5267 30.1756 25.5267C30.3558 25.5267 30.5277 25.5932 30.6929 25.7278C30.8581 25.8623 30.9399 26.0268 30.9399 26.2196C30.9399 26.3691 30.9132 26.507 30.8615 26.6333L28.2129 33.0333C28.1412 33.2127 28.0527 33.3523 27.9509 33.4569H30.4776C31.0567 33.4569 31.5274 32.9901 31.5274 32.4135V22.2852C31.5274 21.7086 31.0584 21.2418 30.4776 21.2418L30.4793 21.2401ZM18.2163 28.0538C17.6689 28.5523 16.9796 28.8015 16.1502 28.8015H14.8468V30.7188C14.8468 31.0079 14.765 31.2306 14.5998 31.3901C14.4346 31.5496 14.2243 31.6293 13.9656 31.6293C13.7069 31.6293 13.4966 31.5496 13.3314 31.3901C13.1662 31.2306 13.0844 31.0063 13.0844 30.7188V24.151C13.0844 23.5429 13.3898 23.2389 14.0006 23.2389H16.0784C16.9479 23.2389 17.6655 23.4981 18.233 24.0164C18.8004 24.5348 19.0841 25.2061 19.0841 26.0335C19.0841 26.8609 18.7937 27.5404 18.2146 28.0555L18.2163 28.0538ZM25.017 30.6391C25.017 30.8866 24.9336 31.0943 24.7667 31.2654C24.5998 31.4366 24.3862 31.5213 24.1275 31.5213C23.747 31.5213 23.47 31.3402 23.2964 30.9764C22.9242 31.4117 22.4152 31.6293 21.7693 31.6293C20.995 31.6293 20.3425 31.3319 19.8151 30.7371C19.2877 30.1423 19.024 29.4162 19.024 28.5589C19.024 27.7016 19.2877 26.9755 19.8151 26.3807C20.3425 25.7859 20.995 25.4885 21.7693 25.4885C22.4152 25.4885 22.9242 25.7062 23.2964 26.1415C23.47 25.7793 23.7487 25.5965 24.1275 25.5965C24.3862 25.5965 24.5981 25.6812 24.7667 25.8524C24.9336 26.0235 25.017 26.2312 25.017 26.4787V30.6391Z" fill="#03CA77"/>
</svg>
